<?xml version="1.0" standalone="no"?>
<!DOCTYPE svg PUBLIC "-//W3C//DTD SVG 20010904//EN"
 "http://www.w3.org/TR/2001/REC-SVG-20010904/DTD/svg10.dtd">
<svg version="1.0" xmlns="http://www.w3.org/2000/svg"
 width="814.000000pt" height="814.000000pt" viewBox="0 0 814.000000 814.000000"
 preserveAspectRatio="xMidYMid meet">
<metadata>
Created by potrace 1.11, written by Peter Selinger 2001-2013
</metadata>
<g transform="translate(0.000000,814.000000) scale(0.100000,-0.100000)"
fill="#000000" stroke="none">
<path d="M3715 8052 c-1 -1 -18 -4 -36 -6 -19 -2 -63 -7 -99 -11 -36 -4 -71
-8 -77 -8 -7 0 -13 -3 -13 -6 0 -3 -12 -6 -27 -7 -29 -1 -68 -7 -113 -18 -14
-3 -37 -8 -52 -11 -16 -3 -40 -8 -55 -11 -16 -3 -35 -7 -43 -8 -8 0 -17 -3
-20 -7 -6 -6 -96 -30 -122 -32 -10 -1 -18 -5 -18 -9 0 -4 -3 -7 -7 -6 -14 3
-78 -14 -90 -24 -7 -6 -13 -7 -13 -4 0 4 -9 2 -21 -4 -11 -6 -28 -13 -38 -15
-16 -3 -73 -24 -176 -66 -16 -7 -32 -13 -35 -13 -6 -1 -53 -23 -176 -82 -51
-24 -97 -44 -103 -44 -6 0 -11 -3 -11 -7 0 -5 -26 -21 -58 -38 -91 -47 -324
-195 -381 -241 -9 -7 -56 -44 -106 -82 -49 -38 -108 -84 -130 -103 -48 -41
-351 -344 -380 -379 -81 -102 -111 -137 -124 -147 -8 -7 -12 -13 -8 -13 4 0
-2 -10 -13 -22 -42 -45 -224 -318 -212 -318 4 0 2 -4 -4 -8 -17 -10 -164 -272
-170 -302 0 -3 -15 -36 -33 -75 -41 -87 -54 -117 -76 -180 -10 -27 -23 -55
-28 -62 -5 -7 -6 -17 -2 -23 3 -5 2 -10 -3 -10 -5 0 -9 -6 -9 -12 -1 -7 -11
-38 -22 -68 -21 -53 -32 -92 -33 -117 -1 -7 -4 -13 -8 -13 -3 0 -7 -8 -8 -17
-2 -21 -10 -57 -12 -60 -2 -2 -3 -6 -4 -10 -1 -5 -8 -31 -15 -59 -7 -29 -14
-60 -16 -70 -2 -11 -4 -20 -5 -21 -3 -4 -5 -11 -15 -68 -4 -27 -9 -54 -11 -60
-5 -23 -23 -140 -28 -190 -2 -16 -7 -57 -11 -90 -4 -33 -8 -79 -8 -102 -1 -24
-4 -43 -7 -43 -6 0 -3 -408 4 -505 2 -33 5 -60 6 -60 1 0 3 -16 5 -35 6 -63
32 -255 39 -285 2 -5 7 -32 11 -60 10 -57 12 -64 14 -67 2 -2 5 -14 7 -27 6
-36 33 -142 43 -171 5 -14 14 -45 21 -70 7 -25 21 -70 32 -100 11 -30 21 -62
23 -70 2 -8 4 -16 5 -17 2 -2 3 -6 5 -10 7 -27 72 -184 102 -248 15 -33 28
-62 28 -65 1 -3 12 -25 25 -50 13 -25 25 -51 26 -58 1 -8 9 -21 16 -30 7 -10
20 -30 29 -47 60 -111 83 -152 95 -166 8 -8 14 -19 14 -22 0 -4 21 -37 47 -75
98 -141 138 -197 143 -202 4 -3 26 -30 49 -60 115 -147 477 -520 505 -520 3 0
19 -12 35 -28 34 -32 48 -43 163 -128 48 -35 90 -64 93 -64 3 0 15 -9 27 -20
12 -11 34 -26 50 -32 15 -7 28 -16 28 -20 0 -5 7 -8 15 -8 8 0 15 -4 15 -10 0
-5 7 -10 15 -10 8 0 15 -4 15 -10 0 -5 9 -10 20 -10 11 0 20 -4 20 -8 0 -4 30
-23 67 -42 38 -19 70 -37 73 -40 14 -15 308 -150 326 -150 8 0 14 -4 14 -10 0
-5 7 -7 15 -4 8 4 15 2 15 -4 0 -6 14 -14 31 -17 18 -4 48 -14 68 -23 20 -8
41 -16 46 -18 6 -1 52 -16 104 -33 52 -17 104 -33 115 -36 12 -2 66 -15 121
-29 112 -28 144 -35 195 -42 19 -2 46 -7 60 -10 38 -7 80 -14 125 -19 22 -2
61 -7 88 -10 26 -4 72 -8 101 -10 30 -1 59 -6 65 -9 5 -4 12 -2 16 4 4 6 11 7
18 3 6 -3 40 -7 76 -9 39 -1 67 -6 69 -13 15 -45 170 -226 262 -305 54 -47
218 -156 261 -173 21 -8 39 -19 39 -24 0 -5 6 -9 14 -9 7 0 35 -9 62 -21 82
-34 87 -36 164 -59 41 -12 90 -26 107 -31 18 -6 37 -7 43 -4 5 3 10 2 10 -4 0
-5 8 -10 18 -9 9 0 37 -3 62 -6 25 -3 68 -9 95 -12 28 -3 52 -8 54 -10 2 -2
12 1 22 7 11 5 19 6 19 2 0 -4 25 -8 55 -9 33 0 52 3 48 9 -4 6 -1 7 8 1 20
-12 1529 -12 1529 1 0 6 4 5 8 -2 8 -12 50 -12 70 1 7 4 8 17 2 36 -5 17 -5
30 -2 30 9 0 6 105 -3 120 -3 5 -2 10 2 10 9 0 8 73 -1 97 -3 7 -2 13 2 13 9
0 6 105 -3 120 -3 5 -2 10 2 10 9 0 8 73 -1 97 -3 7 -2 13 2 13 9 0 6 105 -3
120 -3 5 -2 10 2 10 9 0 8 73 -1 97 -3 7 -2 13 2 13 9 0 6 105 -3 120 -3 5 -2
10 2 10 9 0 8 73 -1 97 -3 7 -2 13 2 13 9 0 6 105 -3 120 -3 5 -2 10 2 10 9 0
8 73 -1 97 -3 7 -2 13 2 13 9 0 6 105 -3 120 -3 5 -2 10 2 10 9 0 8 73 -1 97
-3 7 -2 13 2 13 8 0 7 109 -1 117 -3 2 -2 17 3 32 4 15 3 35 -2 44 -5 10 -5
17 -1 17 9 0 8 73 -1 97 -3 7 -2 13 2 13 9 0 6 105 -3 120 -3 5 -2 10 2 10 9
0 8 73 -1 97 -3 7 -2 13 2 13 9 0 6 105 -3 120 -3 5 -2 10 2 10 9 0 8 73 -1
97 -3 7 -2 13 2 13 9 0 7 94 -3 109 -4 7 10 11 42 12 26 0 65 1 86 2 20 1 37
-2 37 -6 0 -5 5 -5 11 -2 15 10 469 11 469 2 0 -5 6 -5 12 -1 7 5 27 7 45 5
22 -2 33 2 34 11 2 37 -2 2050 -4 2093 -2 28 -6 55 -10 62 -4 6 -3 14 3 18 6
4 7 11 4 17 -4 6 -9 29 -11 52 -2 22 -6 59 -8 81 -2 22 -7 56 -10 75 -3 19
-10 67 -16 105 -6 39 -13 77 -16 85 -6 16 -14 63 -17 95 0 11 -4 22 -8 25 -3
3 -9 21 -11 40 -3 19 -6 35 -7 35 -1 0 -3 7 -5 15 -10 39 -15 57 -24 88 -5 17
-7 32 -3 32 4 0 2 4 -5 8 -7 4 -15 23 -18 41 -3 19 -10 43 -16 53 -6 11 -13
30 -15 44 -2 13 -9 36 -16 51 -6 16 -12 30 -13 33 -3 10 -17 45 -25 65 -4 11
-17 43 -28 70 -12 28 -43 98 -70 155 -27 58 -49 109 -50 114 0 5 -4 12 -9 15
-8 5 -77 126 -107 188 -6 13 -14 23 -18 23 -5 0 -8 7 -8 15 0 8 -4 15 -10 15
-5 0 -10 5 -10 11 0 12 -80 133 -92 137 -4 2 -8 9 -8 15 0 7 -10 23 -22 37
-13 14 -35 43 -50 65 -15 22 -38 52 -50 66 -13 15 -34 41 -48 59 -67 88 -338
366 -430 442 -25 20 -55 45 -67 55 -12 11 -34 28 -48 39 -14 10 -40 30 -57 44
-76 62 -406 280 -424 280 -2 0 -22 11 -44 25 -22 14 -40 22 -40 19 0 -4 -7 -1
-15 6 -42 34 -349 169 -494 217 -42 13 -83 27 -91 31 -8 3 -19 7 -25 7 -5 1
-17 4 -25 7 -8 3 -42 13 -75 23 -33 9 -72 21 -87 25 -16 5 -28 7 -28 5 0 -3
-12 0 -26 6 -15 5 -43 12 -62 15 -20 3 -65 12 -101 19 -35 8 -68 12 -72 9 -4
-2 -10 0 -14 6 -3 5 -19 8 -35 6 -17 -2 -30 -1 -30 3 0 3 -10 6 -22 7 -13 0
-44 3 -70 6 -32 5 -48 3 -50 -5 -2 -7 -4 -597 -4 -1312 1 -1032 4 -1300 14
-1301 6 -1 14 -3 17 -4 3 -1 8 -3 13 -4 4 -1 23 -9 42 -18 19 -8 38 -15 43
-16 12 -2 96 -52 160 -95 70 -47 274 -247 252 -247 -3 0 5 -15 18 -32 65 -86
151 -304 150 -375 0 -13 3 -23 7 -23 9 0 9 -3 10 -145 1 -66 -1 -136 -5 -155
-4 -19 -9 -46 -10 -60 -2 -14 -4 -25 -5 -25 -1 0 -3 -11 -4 -25 -2 -14 -9 -36
-16 -50 -7 -14 -13 -27 -12 -30 3 -10 -33 -96 -66 -160 -30 -57 -51 -90 -87
-139 -13 -18 -187 -192 -208 -208 -9 -7 -21 -13 -27 -13 -5 0 -10 -4 -10 -10
0 -5 -11 -12 -25 -16 -14 -3 -25 -10 -25 -14 0 -7 -149 -79 -160 -77 -3 0 -16
-5 -28 -12 -13 -7 -33 -14 -45 -17 -53 -10 -68 -13 -75 -17 -25 -16 -322 -30
-322 -15 0 4 -9 5 -19 3 -15 -3 -98 12 -136 24 -3 1 -19 4 -35 8 -17 3 -33 10
-36 14 -3 5 -14 9 -25 9 -25 0 -176 80 -244 128 -43 31 -191 175 -220 214 -46
63 -75 108 -69 108 4 0 0 8 -8 18 -35 41 -93 197 -114 307 -16 89 -23 224 -12
231 5 3 4 14 -2 24 -6 10 -6 21 -2 24 5 3 8 21 7 40 -1 20 1 36 4 36 3 0 7 16
9 36 6 85 86 273 165 388 41 60 211 236 227 236 5 0 15 6 22 13 22 22 166 102
203 113 93 28 120 42 121 65 1 13 3 29 4 34 1 6 1 15 0 20 -1 6 -2 52 -2 103
0 62 -4 92 -12 92 -21 0 -141 -30 -176 -44 -19 -8 -38 -14 -42 -15 -5 -1 -9
-1 -10 -2 -2 0 -10 -2 -18 -4 -23 -4 -150 -65 -205 -99 -125 -75 -247 -179
-336 -286 -46 -56 -119 -156 -119 -165 0 -2 -13 -26 -29 -52 -40 -69 -87 -192
-117 -305 -1 -5 -3 -9 -4 -10 -1 -2 -3 -14 -5 -28 -2 -14 -7 -43 -11 -65 -9
-41 -11 -330 -3 -397 2 -21 8 -38 12 -38 5 0 6 -4 3 -8 -6 -10 26 -139 43
-170 6 -12 10 -22 7 -22 -6 0 35 -94 71 -165 81 -159 229 -331 378 -439 22
-16 43 -34 47 -40 4 -6 8 -7 8 -2 0 5 8 2 18 -6 47 -42 289 -148 367 -162 11
-1 27 -6 35 -9 14 -6 59 -14 86 -16 7 -1 12 -23 12 -61 l0 -60 -35 6 c-52 8
-64 11 -113 24 -25 7 -54 14 -66 16 -58 11 -325 135 -354 164 -3 3 -32 23 -65
45 -65 44 -244 217 -290 280 -16 22 -31 42 -34 45 -10 9 -42 64 -48 83 -3 9
-9 17 -13 17 -7 0 -68 115 -75 140 -1 3 -6 16 -12 30 -43 100 -79 219 -88 290
-2 14 -4 25 -5 25 -7 0 -13 111 -13 230 0 149 5 224 17 243 4 7 5 12 3 12 -3
0 -1 17 4 38 5 20 12 48 15 61 3 13 9 32 15 43 5 10 7 18 5 18 -8 0 41 125 84
211 79 159 200 317 332 430 40 34 75 66 76 71 2 4 10 8 18 8 8 0 14 5 14 10 0
6 5 10 11 10 6 0 25 11 43 25 44 33 209 116 276 138 30 10 64 22 75 27 31 12
95 28 145 35 25 4 52 8 60 10 12 1 15 22 16 107 0 57 4 110 8 116 4 7 4 18 -1
25 -4 6 -7 35 -6 64 1 36 -2 53 -13 57 -8 3 -14 1 -14 -4 0 -5 -8 -8 -17 -8
-24 1 -55 -6 -128 -28 -33 -10 -66 -19 -73 -20 -28 -5 -117 -39 -123 -47 -3
-4 -10 -7 -15 -5 -27 7 -404 -211 -404 -234 0 -4 -5 -8 -10 -8 -14 0 -58 -39
-170 -150 -96 -97 -109 -112 -180 -210 -22 -30 -43 -59 -47 -65 -4 -5 -17 -27
-28 -47 -11 -21 -23 -38 -28 -38 -4 0 -6 -4 -2 -9 3 -5 1 -12 -4 -16 -14 -8
-84 -157 -119 -255 -57 -159 -85 -276 -96 -412 -2 -25 -6 -50 -8 -55 -7 -12
-1 -280 6 -333 4 -25 9 -61 12 -80 8 -59 12 -84 19 -110 3 -14 8 -36 11 -50 2
-14 12 -43 20 -65 9 -22 16 -41 15 -42 0 -2 2 -11 5 -20 17 -52 23 -70 30 -88
4 -11 8 -22 9 -25 7 -30 138 -274 155 -290 3 -3 22 -31 43 -62 40 -58 43 -63
130 -162 63 -73 61 -70 132 -131 32 -27 64 -56 71 -62 7 -7 18 -13 25 -13 7 0
9 -3 6 -7 -4 -3 2 -11 13 -17 11 -6 48 -31 82 -55 72 -51 264 -152 323 -171
22 -7 45 -17 51 -22 7 -5 21 -11 33 -13 12 -3 30 -7 40 -9 11 -3 29 -10 40
-16 12 -6 21 -8 21 -6 0 3 17 -1 38 -8 20 -7 43 -11 50 -9 6 3 12 1 12 -4 0
-4 10 -9 23 -9 55 -4 62 -10 64 -50 1 -21 0 -49 -3 -61 -4 -21 -6 -22 -44 -8
-23 8 -40 10 -40 4 0 -6 -6 -6 -17 1 -10 5 -54 19 -98 30 -44 12 -87 24 -95
27 -8 3 -19 7 -25 8 -10 3 -95 36 -145 58 -14 5 -28 10 -32 9 -5 -1 -8 3 -8 8
0 5 -3 9 -7 8 -5 -1 -19 4 -33 12 -14 8 -31 15 -38 16 -8 1 -21 9 -30 16 -10
8 -46 31 -81 52 -189 110 -399 304 -543 501 -103 142 -206 337 -253 480 -9 28
-18 56 -20 63 -3 7 -4 13 -4 15 0 1 -5 16 -11 32 -7 17 -14 39 -16 50 -2 11
-6 30 -9 43 -6 28 -13 60 -20 92 -6 29 -17 114 -19 150 -1 14 -5 30 -9 37 -4
6 -3 14 3 18 6 4 8 11 4 16 -11 18 -11 129 0 129 7 0 8 3 1 8 -11 8 -14 102
-4 102 4 0 6 14 5 32 -1 17 1 55 6 82 4 28 10 67 13 86 3 20 8 47 11 60 3 14
7 36 10 50 2 14 7 32 11 40 3 8 8 24 10 35 6 27 9 37 16 55 16 43 42 116 43
120 2 14 42 102 81 178 124 243 325 482 542 643 36 27 71 52 76 57 54 43 303
174 358 187 15 4 27 10 27 14 0 4 6 8 13 9 34 3 53 8 58 15 3 4 19 10 34 13
16 3 34 9 41 15 6 5 13 6 16 4 3 -3 17 -1 32 5 32 12 83 23 114 24 12 1 22 4
22 9 0 4 3 6 8 6 4 -1 17 -1 29 0 21 1 22 5 21 104 0 56 1 109 3 117 3 11 -5
15 -28 15 -18 1 -33 -2 -33 -5 0 -4 -10 -6 -22 -5 -20 1 -39 -2 -108 -20 -8
-2 -25 -4 -38 -4 -15 -1 -21 -5 -16 -13 4 -7 3 -8 -5 -4 -6 4 -34 0 -62 -9
-27 -9 -56 -18 -64 -19 -8 -1 -18 -5 -21 -9 -4 -4 -14 -7 -23 -7 -9 0 -29 -7
-45 -15 -15 -8 -37 -15 -47 -15 -11 0 -19 -4 -19 -10 0 -5 -6 -10 -13 -10 -14
0 -211 -97 -268 -133 -19 -12 -54 -33 -77 -46 -23 -14 -42 -28 -42 -33 0 -4
-5 -8 -10 -8 -6 0 -16 -4 -23 -10 -158 -126 -297 -254 -372 -342 -68 -79 -205
-274 -235 -333 -8 -16 -17 -32 -20 -35 -5 -4 -81 -157 -85 -170 -2 -5 -21 -55
-32 -80 -3 -8 -7 -19 -9 -25 -1 -5 -8 -23 -15 -40 -6 -16 -13 -35 -15 -42 -3
-15 -24 -83 -31 -103 -8 -20 -12 -40 -15 -67 -1 -13 -5 -23 -8 -23 -3 0 -6 -8
-6 -17 -1 -10 -4 -34 -8 -53 -15 -80 -26 -158 -31 -235 -1 -27 -4 -52 -5 -55
-8 -23 4 -325 15 -390 3 -14 7 -47 11 -75 3 -27 9 -57 13 -65 4 -8 6 -25 5
-37 0 -13 3 -23 9 -23 6 0 8 -2 5 -6 -3 -3 -2 -19 2 -37 15 -59 61 -209 69
-225 20 -38 46 -107 44 -114 -2 -5 2 -8 7 -8 5 0 9 -3 8 -7 -6 -26 186 -355
237 -406 8 -9 15 -18 15 -22 0 -4 6 -12 13 -19 7 -8 29 -33 48 -56 95 -117
374 -370 408 -370 6 0 11 -4 11 -8 0 -5 12 -15 28 -23 15 -8 29 -17 32 -20 21
-23 333 -185 374 -194 6 -1 18 -5 26 -8 37 -14 139 -47 180 -58 58 -16 59 -16
99 -24 19 -3 37 -8 40 -10 4 -2 27 -6 51 -10 25 -4 52 -9 60 -10 8 -2 20 -4
26 -4 7 -1 12 -23 12 -61 0 -56 -2 -59 -22 -55 -11 3 -41 7 -66 11 -51 6 -74
10 -110 19 -14 3 -36 8 -50 11 -35 8 -43 10 -60 16 -49 18 -153 48 -165 48 -8
0 -15 5 -15 11 0 5 -4 8 -8 5 -4 -2 -21 1 -37 9 -17 7 -64 28 -105 46 -92 41
-254 129 -258 141 -2 4 -7 8 -12 8 -5 0 -37 19 -71 43 -34 23 -69 47 -77 52
-9 6 -26 20 -39 33 -13 12 -27 22 -31 22 -4 0 -40 31 -79 68 -40 38 -73 67
-73 66 0 -2 -24 23 -52 54 -29 31 -62 66 -73 78 -52 55 -135 161 -135 172 0 5
-7 12 -15 16 -8 3 -15 12 -15 19 0 8 -7 21 -16 28 -9 7 -20 22 -25 34 -5 11
-27 49 -49 85 -54 88 -148 283 -138 286 2 0 -3 8 -10 16 -7 9 -15 24 -17 34
-2 11 -12 42 -23 69 -21 56 -63 208 -67 242 -2 11 -6 31 -10 42 -3 12 -8 34
-10 49 -2 15 -6 41 -9 57 -15 89 -20 169 -19 345 0 227 5 280 39 440 3 14 7
36 9 50 3 14 12 50 20 80 9 30 18 66 21 79 3 14 8 29 12 35 3 6 7 16 8 21 10
56 100 260 173 390 24 44 48 82 53 83 4 2 8 8 8 14 0 9 71 117 95 144 6 7 26
33 45 59 19 26 77 90 128 143 50 53 92 100 92 104 0 5 4 8 9 8 4 0 19 10 32
23 20 18 151 123 194 155 6 4 33 22 60 39 28 18 55 36 60 41 11 8 108 63 188
105 26 14 47 23 47 20 0 -3 7 1 16 8 9 7 26 15 37 16 12 2 24 8 25 13 2 6 7
10 12 10 5 0 21 5 37 11 15 6 30 11 33 12 3 0 33 11 67 23 34 12 64 20 67 16
3 -3 6 -1 6 5 0 6 12 13 28 16 45 9 86 18 104 23 9 3 27 7 40 10 24 4 76 14
93 18 6 1 16 5 23 9 6 5 12 4 12 -2 0 -7 9 -7 28 0 15 6 29 10 32 10 3 -1 6
60 7 134 1 79 -2 133 -8 130 -5 -4 -26 -8 -46 -10 -41 -4 -84 -12 -123 -22
-14 -3 -28 -6 -32 -5 -15 3 -237 -55 -293 -78 -16 -6 -30 -11 -30 -10 0 1 -11
-3 -25 -8 -14 -5 -52 -19 -85 -31 -33 -13 -65 -27 -72 -33 -7 -6 -13 -8 -13
-4 0 18 -392 -205 -457 -261 -14 -13 -29 -23 -32 -23 -3 0 -20 -13 -37 -28
-18 -15 -54 -45 -80 -67 -59 -48 -267 -255 -312 -310 -67 -82 -175 -231 -190
-262 -9 -18 -19 -33 -24 -33 -4 0 -8 -5 -8 -10 0 -6 -17 -38 -38 -73 -44 -74
-142 -280 -142 -301 0 -8 -3 -16 -8 -18 -7 -3 -50 -122 -57 -159 -2 -11 -7
-24 -10 -29 -3 -5 -8 -18 -10 -27 -2 -10 -12 -52 -23 -93 -11 -41 -20 -82 -20
-90 -1 -8 -5 -33 -11 -55 -6 -22 -13 -65 -17 -95 -3 -30 -8 -57 -9 -60 -6 -10
-18 -217 -18 -310 0 -107 10 -291 18 -312 5 -13 15 -91 18 -140 1 -16 5 -28 8
-28 4 0 7 -10 7 -22 0 -44 80 -327 105 -373 6 -11 11 -24 12 -30 0 -17 58
-147 107 -243 56 -107 144 -252 194 -317 19 -25 34 -49 34 -54 0 -5 3 -11 8
-13 4 -1 31 -32 61 -68 29 -36 57 -67 62 -68 5 -2 9 -7 9 -12 0 -9 129 -139
216 -217 132 -118 448 -333 489 -333 8 0 15 -4 15 -8 0 -9 100 -57 113 -54 4
1 7 -3 7 -8 0 -5 3 -9 8 -8 4 1 18 -4 32 -9 133 -57 255 -99 273 -95 4 1 7 -3
7 -10 0 -6 3 -9 6 -5 3 3 26 -1 52 -8 25 -8 49 -12 54 -9 4 3 8 1 8 -3 0 -5
33 -15 73 -22 39 -7 81 -15 92 -17 11 -2 38 -6 60 -9 22 -4 49 -7 60 -9 17 -2
20 -11 22 -59 2 -64 2 -64 -72 -53 -78 11 -111 17 -160 27 -27 5 -60 11 -73
14 -12 2 -26 6 -30 9 -5 3 -21 7 -36 10 -30 5 -133 34 -156 43 -8 3 -24 8 -35
10 -10 2 -22 7 -25 11 -3 4 -12 8 -20 10 -25 4 -140 52 -240 100 -52 25 -98
45 -102 44 -5 -1 -8 2 -8 7 0 5 -12 14 -27 20 -36 14 -177 102 -181 113 -2 4
-9 8 -15 8 -7 0 -23 9 -37 20 -14 11 -72 56 -130 101 -229 179 -468 449 -615
693 -71 119 -165 303 -158 310 4 3 0 6 -7 6 -7 0 -10 3 -7 7 4 3 3 11 -2 17
-6 9 -62 147 -67 166 0 3 -3 12 -6 20 -11 32 -37 116 -44 145 -10 41 -11 45
-14 48 -1 1 -3 11 -5 22 -7 40 -16 79 -21 87 -3 5 -7 27 -10 51 -5 44 -11 82
-14 82 -1 0 -3 14 -5 30 -1 17 -6 62 -10 100 -4 39 -9 90 -11 115 -5 56 -5
280 0 340 11 124 18 192 22 212 3 13 7 37 9 53 3 17 8 44 11 60 4 17 9 37 10
45 9 51 14 73 33 140 12 41 23 86 26 99 3 13 12 39 20 57 7 18 11 35 7 38 -3
3 0 6 6 6 7 0 11 3 10 8 -4 12 56 162 65 162 4 0 6 4 3 8 -9 15 160 334 187
353 5 3 8 9 8 13 -2 7 4 16 95 139 112 154 301 358 405 439 16 13 44 36 62 51
18 16 61 49 97 75 36 25 68 51 72 56 5 7 8 7 8 1 0 -6 3 -6 8 1 4 6 36 28 72
50 36 21 67 41 70 44 3 3 23 14 45 25 22 10 51 27 64 37 13 10 27 15 32 12 5
-3 9 0 9 7 0 7 3 9 6 6 4 -4 19 2 33 12 14 10 29 19 34 20 4 0 28 9 53 21 26
11 48 20 49 20 1 0 20 8 41 17 22 9 44 18 49 19 6 1 46 14 90 29 44 15 87 29
95 30 8 2 15 4 15 5 0 2 0 2 85 23 69 17 69 17 73 18 1 1 13 2 27 4 14 2 36 6
50 9 61 12 107 19 133 18 15 0 27 4 27 9 0 5 6 6 14 3 12 -5 14 16 13 128 l-2
133 -30 -2 c-16 -1 -56 -4 -87 -5 -32 -2 -58 -5 -58 -8 0 -3 -11 -7 -25 -8
-55 -4 -182 -33 -340 -77 -5 -1 -25 -6 -42 -10 -18 -4 -33 -12 -33 -17 0 -5
-4 -7 -9 -3 -9 5 -31 -2 -136 -42 -44 -17 -52 -20 -138 -57 -31 -14 -59 -24
-61 -23 -2 1 -12 -5 -22 -14 -11 -9 -30 -20 -43 -24 -13 -4 -46 -20 -73 -36
-27 -16 -53 -29 -58 -29 -6 0 -10 -4 -10 -10 0 -5 -9 -10 -20 -10 -11 0 -20
-4 -20 -8 0 -5 -12 -15 -27 -23 -64 -32 -306 -203 -359 -254 -12 -11 -45 -40
-73 -64 -53 -45 -191 -181 -191 -188 0 -2 -13 -16 -28 -31 -33 -31 -172 -198
-172 -206 0 -6 -24 -37 -47 -61 -7 -8 -13 -18 -13 -24 0 -6 -3 -11 -8 -11 -4
0 -12 -9 -17 -19 -6 -11 -41 -70 -78 -133 -95 -158 -137 -237 -137 -258 0 -5
-4 -10 -10 -10 -5 0 -9 -3 -8 -7 1 -9 -15 -52 -38 -97 -8 -16 -14 -33 -14 -38
0 -4 -9 -27 -19 -51 -23 -51 -46 -119 -43 -129 1 -5 -3 -8 -9 -8 -5 0 -7 -5
-4 -10 4 -6 2 -16 -3 -23 -7 -10 -30 -88 -47 -167 -2 -8 -10 -43 -18 -78 -9
-34 -16 -65 -16 -67 -1 -3 -1 -6 -2 -7 -1 -3 -4 -26 -13 -93 -4 -27 -9 -61
-12 -75 -4 -26 -13 -117 -20 -210 -4 -55 -4 -88 0 -125 1 -11 -1 -35 -5 -52
-4 -20 -3 -31 2 -27 6 3 7 -4 4 -18 -3 -12 -6 -32 -5 -43 1 -46 16 -218 24
-270 3 -16 8 -52 12 -80 4 -27 9 -57 11 -65 2 -8 6 -28 7 -45 2 -16 5 -30 6
-30 1 0 4 -9 5 -20 3 -26 44 -185 52 -205 3 -8 7 -18 8 -22 2 -5 4 -11 5 -15
1 -5 3 -12 4 -18 6 -33 39 -126 46 -130 5 -3 7 -12 3 -20 -3 -8 0 -15 6 -15 6
0 10 -3 9 -7 -1 -8 4 -22 30 -83 8 -19 14 -38 14 -42 -1 -5 3 -8 10 -8 6 0 9
-3 6 -6 -7 -6 112 -247 124 -252 4 -2 8 -8 8 -13 0 -19 170 -276 215 -325 6
-6 21 -26 35 -44 51 -67 171 -201 233 -259 22 -20 56 -52 76 -71 59 -55 166
-144 236 -195 22 -16 43 -34 47 -39 4 -6 8 -7 8 -3 0 5 7 2 15 -5 33 -29 45
-38 45 -33 0 4 6 0 14 -8 8 -8 52 -36 98 -63 46 -26 86 -52 89 -57 3 -5 9 -8
13 -7 4 0 50 -21 104 -47 119 -60 267 -122 307 -130 10 -2 22 -8 26 -14 3 -6
8 -9 10 -7 4 3 76 -17 117 -33 13 -5 32 -9 42 -9 11 0 20 -5 20 -11 0 -5 4 -8
8 -5 5 3 41 -3 80 -14 40 -10 72 -16 72 -13 0 3 7 0 15 -7 8 -7 15 -10 15 -8
0 3 19 1 43 -4 23 -5 58 -11 77 -13 192 -23 205 -27 190 -55 -7 -13 -7 -21 0
-25 7 -4 6 -14 -2 -28 -6 -12 -11 -24 -10 -27 2 -4 -35 -5 -40 0 -3 2 -14 3
-118 13 -25 3 -52 7 -60 10 -8 3 -37 9 -65 13 -53 8 -63 10 -67 14 -2 1 -14 3
-28 5 -14 2 -52 11 -85 20 -33 9 -71 19 -84 21 -13 3 -32 9 -43 15 -10 5 -18
7 -18 3 0 -3 -7 -1 -15 6 -8 7 -15 9 -15 5 0 -4 -7 -2 -15 5 -8 7 -15 10 -15
7 0 -4 -20 2 -45 13 -25 11 -45 17 -45 13 0 -3 -6 0 -14 6 -8 7 -22 13 -33 15
-28 6 -249 106 -327 148 -38 21 -73 38 -77 38 -5 0 -9 3 -9 8 0 4 -14 13 -30
20 -43 20 -274 175 -305 206 -9 9 -19 16 -23 16 -4 0 -23 15 -43 33 -19 17
-51 44 -70 58 -44 34 -260 249 -316 315 -23 27 -64 78 -93 114 -28 36 -57 73
-65 83 -8 9 -15 21 -15 26 0 5 -3 11 -7 13 -12 5 -93 125 -93 136 0 6 -4 12
-8 14 -21 9 -215 381 -204 392 3 3 0 6 -6 6 -7 0 -11 3 -10 8 1 4 -3 18 -9 32
-6 14 -18 42 -26 63 -9 20 -13 37 -10 37 3 0 0 7 -7 15 -7 8 -9 15 -4 15 5 0
4 4 -1 8 -6 4 -19 36 -30 72 -10 36 -21 70 -24 75 -3 6 -6 15 -8 20 -7 35 -12
55 -23 95 -14 51 -20 77 -25 105 -7 33 -13 60 -15 60 -1 0 -3 11 -5 25 -7 48
-14 80 -20 90 -3 5 -1 10 5 10 7 0 8 6 1 18 -13 24 -30 189 -35 327 -1 33 -5
66 -9 73 -5 6 -4 12 0 12 5 0 9 42 9 93 0 100 17 332 24 332 0 0 3 16 5 35 8
73 30 201 35 208 2 1 4 11 5 22 1 11 3 21 4 23 2 1 5 13 7 27 3 14 10 43 16
65 14 47 11 39 27 95 6 25 15 52 18 60 4 8 7 17 8 20 1 3 6 20 10 38 4 17 12
32 17 32 5 0 7 4 3 10 -3 5 -1 17 4 27 6 10 16 34 24 53 8 19 20 49 27 65 6
17 11 31 11 33 -1 1 8 19 19 39 11 21 20 41 20 46 0 4 15 33 32 64 18 32 33
64 35 72 1 8 6 17 10 20 5 3 27 38 48 76 36 65 180 284 194 295 4 3 22 25 41
50 19 25 38 47 42 48 5 2 8 7 8 12 0 27 364 390 391 390 5 0 9 7 9 15 0 8 6
15 13 15 7 0 24 11 39 25 15 14 42 35 60 48 18 12 59 41 90 65 31 23 62 42 68
42 5 0 10 4 10 10 0 5 11 12 25 16 14 3 25 9 25 13 0 4 15 15 33 24 17 10 46
25 62 35 60 37 165 91 242 125 140 63 158 70 171 68 6 -1 12 3 12 9 0 6 4 9 9
5 5 -3 12 -1 16 5 3 5 12 10 20 10 8 0 26 5 42 12 32 13 42 16 63 20 8 2 20 6
25 10 6 3 26 9 45 14 43 10 42 9 60 17 8 4 26 9 40 11 14 3 55 12 91 20 82 19
115 25 154 32 80 13 190 26 222 27 19 1 21 6 20 62 -1 33 2 66 7 73 4 6 4 17
0 24 -10 16 -12 69 -3 95 5 12 4 25 -1 28 -5 3 -7 12 -4 20 5 12 -3 14 -47 10
-116 -9 -204 -21 -204 -25 0 -1 -11 -3 -25 -4 -22 -2 -49 -7 -125 -22 -24 -5
-57 -12 -87 -20 -13 -3 -36 -8 -53 -11 -16 -3 -38 -9 -47 -14 -9 -5 -21 -8
-25 -7 -4 2 -21 -2 -38 -9 -28 -11 -87 -26 -93 -24 -1 1 -16 -6 -32 -14 -16
-8 -33 -16 -37 -16 -32 -5 -120 -39 -253 -98 -52 -23 -99 -43 -105 -44 -5 -1
-12 -4 -15 -7 -3 -3 -48 -28 -100 -54 -52 -27 -98 -54 -102 -60 -4 -6 -8 -8
-8 -4 0 4 -26 -9 -57 -29 -67 -42 -193 -125 -208 -136 -5 -4 -28 -21 -50 -37
-85 -64 -100 -76 -117 -92 -10 -10 -20 -18 -23 -18 -3 0 -13 -8 -24 -17 -10
-10 -53 -49 -95 -88 -107 -95 -268 -262 -318 -327 -15 -20 -33 -42 -40 -50 -7
-7 -40 -49 -73 -93 -33 -44 -63 -81 -67 -83 -5 -2 -8 -8 -8 -13 0 -11 -42 -72
-52 -77 -5 -2 -8 -10 -8 -18 0 -8 -4 -14 -10 -14 -5 0 -10 -6 -10 -14 0 -8 -6
-21 -13 -28 -17 -19 -46 -68 -60 -100 -6 -16 -14 -28 -18 -28 -3 0 -17 -25
-30 -55 -13 -30 -27 -55 -31 -55 -5 0 -8 -6 -8 -14 0 -7 -14 -39 -30 -70 -17
-31 -27 -56 -24 -56 4 0 0 -8 -8 -17 -9 -10 -22 -37 -29 -60 -7 -24 -16 -43
-21 -43 -4 0 -7 -3 -6 -7 2 -7 -23 -82 -55 -163 -13 -32 -13 -33 -29 -100 -1
-8 -6 -17 -9 -20 -5 -5 -33 -104 -44 -157 -3 -13 -7 -31 -10 -40 -16 -62 -51
-250 -50 -269 0 -13 -2 -24 -5 -24 -3 0 -6 -10 -7 -22 -1 -13 -4 -45 -6 -73
-25 -228 -26 -621 -3 -745 2 -14 7 -47 10 -75 7 -53 14 -107 21 -140 2 -11 6
-38 10 -60 3 -22 10 -53 15 -70 5 -16 11 -41 14 -55 3 -14 8 -36 11 -50 3 -14
8 -36 11 -49 3 -14 8 -29 11 -34 3 -6 7 -20 9 -31 7 -59 148 -435 168 -448 6
-4 7 -8 2 -8 -4 0 -1 -11 8 -25 9 -13 16 -31 16 -39 0 -8 5 -16 11 -18 5 -2
11 -11 12 -20 2 -9 7 -22 13 -29 5 -8 19 -33 30 -56 10 -24 23 -43 27 -43 5 0
5 -4 2 -10 -3 -5 -3 -10 2 -10 4 0 13 -10 19 -23 18 -39 59 -110 72 -126 7 -9
33 -47 58 -84 48 -75 166 -233 211 -284 15 -17 43 -48 61 -70 104 -119 346
-348 426 -402 12 -8 26 -19 31 -25 29 -32 337 -236 347 -230 4 3 8 1 8 -4 0
-10 21 -22 180 -102 171 -87 343 -158 475 -197 28 -8 55 -18 60 -21 6 -4 12
-7 15 -7 31 -5 132 -31 150 -38 21 -9 254 -54 315 -62 28 -3 66 -8 85 -11 19
-3 58 -7 85 -9 28 -2 51 -4 53 -5 1 -2 8 -3 14 -4 7 0 13 -8 14 -16 1 -8 2
-17 3 -20 2 -3 4 -12 6 -20 2 -8 7 -25 11 -37 6 -22 5 -23 -75 -20 -44 1 -81
4 -81 7 0 3 -10 6 -22 7 -30 2 -151 16 -160 19 -5 1 -11 3 -15 4 -5 1 -11 2
-15 1 -3 0 -60 11 -125 25 -65 15 -130 29 -145 31 -16 3 -28 9 -28 13 0 4 -11
6 -25 5 -14 -2 -25 1 -25 6 0 6 -6 9 -12 8 -7 -1 -20 0 -28 3 -29 11 -105 33
-112 33 -3 0 -10 3 -14 8 -4 4 -17 7 -29 7 -11 0 -25 4 -30 8 -6 4 -37 18 -70
31 -372 142 -721 350 -1034 618 -67 57 -289 280 -346 347 -27 32 -55 64 -60
70 -6 6 -26 31 -45 56 -19 25 -38 47 -42 48 -5 2 -8 9 -8 15 0 6 -10 21 -21
33 -12 13 -27 32 -33 42 -24 40 -135 208 -145 219 -6 7 -11 19 -11 28 0 8 -4
15 -9 15 -4 0 -49 81 -100 180 -50 99 -88 180 -85 180 3 0 0 10 -8 23 -25 38
-122 307 -148 412 -7 28 -17 55 -21 61 -5 6 -6 13 -4 16 3 3 1 17 -4 31 -5 14
-13 44 -16 68 -4 24 -11 51 -15 60 -5 9 -7 18 -5 21 2 2 0 20 -5 39 -8 31 -16
77 -25 149 -2 14 -4 25 -5 25 -3 0 -17 148 -26 260 -4 64 -4 386 1 445 2 25 6
68 8 95 1 28 5 55 8 60 2 6 4 29 4 52 0 24 2 43 5 43 4 0 6 10 7 23 1 24 11
102 13 102 1 0 3 11 6 25 16 95 24 132 29 140 2 4 7 22 10 41 11 61 80 296
112 379 4 8 7 17 8 20 3 9 25 62 52 130 38 92 164 344 175 348 4 2 6 7 3 12
-3 4 2 13 10 20 8 7 15 19 15 26 0 8 3 14 8 14 4 0 13 15 21 33 8 17 18 34 21
37 4 3 23 30 41 60 42 68 158 226 228 310 12 14 38 45 59 70 53 65 299 309
352 350 24 19 60 50 80 68 19 17 43 35 53 38 9 3 17 9 17 13 0 8 76 63 214
153 39 26 76 52 83 57 7 6 15 11 18 11 3 0 23 11 45 25 22 14 40 23 40 20 0
-3 10 3 22 15 20 18 27 21 44 19 4 0 10 4 13 9 6 10 226 119 246 122 6 1 19 7
30 13 11 6 22 11 25 12 6 0 78 30 115 47 12 5 27 10 35 12 8 2 29 9 45 15 17
7 37 14 45 17 8 2 53 15 100 29 83 26 104 31 145 40 11 3 29 7 40 10 98 24
185 41 260 50 17 2 39 6 50 8 11 3 49 8 85 12 36 4 74 9 85 10 11 1 28 3 38 4
15 1 17 11 15 84 -1 45 1 88 6 95 6 10 -11 12 -79 10 -48 -2 -88 -4 -90 -6z"/>
<path d="M4040 4791 c-106 -39 -190 -113 -229 -203 -13 -29 -27 -60 -31 -68
-12 -27 -9 -161 7 -213 8 -27 26 -69 40 -91 29 -47 104 -121 144 -142 98 -50
229 -61 319 -26 14 5 27 9 30 9 12 -3 99 65 133 102 197 218 88 567 -201 641
-58 15 -157 10 -212 -9z"/>
</g>
</svg>
